<svg xmlns="http://www.w3.org/2000/svg" viewBox="0 0 104 48" fill="none"><path fill-rule="evenodd" clip-rule="evenodd" d="M42.8317 35.4007L42.8424 35.3954C43.6775 34.9853 44.3228 41.2982 34.2268 41.2982C22.4609 41.2982 18.3376 28.4702 17.5647 23.423C17.5647 23.423 15.7972 24.0941 14.2554 24.5667C13.3362 28.1639 12.321 31.5891 11.935 32.5235C11.5808 33.3821 6.29232 34.1648 7.05146 31.2553C7.81061 28.3466 9.02058 23.7708 9.89846 20.6749C10.6232 18.1202 12.2897 11.817 11.3029 10.0452C11.3029 10.0452 12.5364 8.8143 14.2442 8.8143C15.653 8.8143 17.0339 9.20606 17.0339 11.5555C17.0339 12.4003 16.7397 13.7153 15.953 17.2316C15.7511 18.1342 15.5167 19.1817 15.2466 20.4036C18.2212 19.4262 24.9279 16.4123 24.9279 10.6925C24.9279 6.07944 22.5747 3.46704 18.5516 3.46704C10.9226 3.46704 5.68461 10.7415 4.69775 15.3612C4.39691 16.7685 -1.66475 15.3598 0.444898 10.8442C3.78661 3.69217 11.53 0 18.5014 0C24.7761 0 30.9886 3.16992 30.9886 10.6914C30.9886 18.201 22.0814 21.9044 22.0814 21.9044C22.0814 21.9044 24.5106 36.7695 36.2765 36.7695C40.0461 36.7695 41.8179 35.8988 42.8317 35.4007ZM40.1734 15.7249C40.8826 15.6937 41.3802 16.0433 41.4186 16.8893C41.6334 21.5842 35.1257 22.0769 35.1257 22.0769C35.4039 19.7808 37.5965 15.8388 40.1734 15.7249ZM61.1819 12.1709C59.279 12.1709 57.823 13.7936 57.823 15.5278C57.823 17.0267 58.477 17.7623 59.0928 18.4548C59.6509 19.0825 60.1776 19.6749 60.1572 20.7684C60.1136 23.0682 56.3873 29.5956 53.871 29.5956C52.9386 29.5956 52.7941 28.6693 52.7941 28.2345C52.7941 25.6358 53.6203 22.3814 54.297 19.7159C54.7664 17.8671 55.1638 16.3016 55.1638 15.4346C55.1638 13.4391 53.9321 12.9298 52.4577 12.9298C50.5095 12.9298 49.434 14.1481 49.434 14.1481C50.1094 15.5258 49.4463 18.8168 48.6924 21.9784C47.3895 25.6158 43.1667 29.9882 39.3894 30.008C34.4551 30.0327 35.1758 24.9151 35.1758 24.9151C35.1758 24.9151 46.7806 25.1695 46.4178 17.24C46.2646 13.9037 42.9932 12.4695 40.0579 12.5994C34.0679 12.8641 29.2968 18.4686 29.6143 25.4036C29.8647 30.8779 34.0217 33.4888 38.4472 33.2938C42.3623 33.12 45.2867 31.3769 47.3895 29.3452C47.6651 31.6229 49.1185 33.319 51.9021 33.319C59.1609 33.319 64.9013 23.0203 64.9013 16.6343C64.9013 14.2972 63.6589 12.1709 61.1819 12.1709ZM96.8243 15.7879C97.6168 15.7719 98.0363 16.141 98.0538 16.9876C98.1519 21.6054 91.8378 22.0204 91.8378 22.0204C92.1725 19.7314 93.9738 15.8462 96.8243 15.7879ZM100.791 27.0543C99.3065 28.6518 97.4343 29.8695 95.3593 29.9122C91.3801 29.9934 91.861 24.9897 91.861 24.9897C91.861 24.9897 103.413 25.3878 103.246 17.4525C103.175 14.1134 99.9391 12.6023 97.0015 12.6622C91.0067 12.7852 85.9476 18.2779 86.0942 25.2189C86.1085 25.8865 86.1708 26.5126 86.278 27.0979C85.5 28.1 84.1262 29.6019 82.8815 29.6019C82.1984 29.6019 81.9423 29.0054 81.9423 28.3343C81.9423 25.4421 82.7121 22.5751 83.3782 20.0946L83.3782 20.0945C83.886 18.2032 84.3336 16.5365 84.3336 15.2545C84.3336 13.4552 83.0874 12.9398 81.5436 12.9398C79.6405 12.9398 78.5822 14.1607 78.5822 14.1607C79.6204 16.9701 75.9325 29.6019 72.0554 29.6019C71.1382 29.6019 70.9782 28.8927 70.9782 28.3145C70.9782 26.2852 71.6592 23.5215 72.291 20.9573L72.291 20.9572L72.291 20.957C72.8378 18.7382 73.3477 16.6689 73.3477 15.354C73.3477 13.4704 72.0766 12.9111 70.5686 12.9111C68.7845 12.9111 67.6021 14.1607 67.6021 14.1607C68.4049 15.6842 67.3765 19.9111 66.5017 23.507C65.9846 25.6325 65.5211 27.5376 65.5211 28.5336C65.5211 31.2146 67.029 33.3314 69.6859 33.3314C74.003 33.3314 76.5081 27.9976 76.5081 27.9976C76.5081 27.9976 75.9325 33.3314 81.1743 33.3314C83.8629 33.3314 86.0024 31.0806 87.1272 29.585C88.5104 32.1354 91.218 33.3867 94.883 33.3122C97.5192 33.258 99.4109 32.5152 100.875 31.2212C103.134 29.2228 101.629 26.1518 100.791 27.0543Z" fill="#E15718"/><path d="M54.036 46.1745V38.0771H55.3819V41.2703C55.6035 41.0341 55.8542 40.8471 56.1339 40.709C56.4136 40.5673 56.7406 40.4965 57.1148 40.4965C57.4199 40.4965 57.6978 40.5601 57.9485 40.6872C58.2028 40.8107 58.4208 40.9924 58.6024 41.2321C58.7877 41.4719 58.9293 41.768 59.0274 42.1203C59.1292 42.4727 59.18 42.8778 59.18 43.3355C59.18 43.7533 59.1237 44.1402 59.0111 44.4962C58.8985 44.8522 58.7368 45.161 58.5261 45.4225C58.319 45.6841 58.0666 45.8893 57.7687 46.0383C57.4744 46.1836 57.1438 46.2563 56.7769 46.2563C56.6062 46.2563 56.45 46.2381 56.3083 46.2018C56.1666 46.1691 56.0377 46.1218 55.9214 46.0601C55.8052 45.9983 55.6962 45.9239 55.5945 45.8367C55.4964 45.7459 55.4019 45.646 55.3111 45.537L55.2512 45.913C55.2294 46.0074 55.1912 46.0746 55.1367 46.1146C55.0859 46.1545 55.015 46.1745 54.9242 46.1745H54.036ZM56.6516 41.5427C56.3719 41.5427 56.1321 41.6027 55.9323 41.7226C55.7361 41.8388 55.5527 42.0041 55.3819 42.2184V44.725C55.5345 44.9139 55.6998 45.0465 55.8778 45.1228C56.0595 45.1955 56.2556 45.2318 56.4663 45.2318C56.6698 45.2318 56.8532 45.1937 57.0167 45.1174C57.1802 45.0411 57.3182 44.9248 57.4308 44.7686C57.5471 44.6124 57.6361 44.4163 57.6978 44.1801C57.7596 43.9404 57.7905 43.6588 57.7905 43.3355C57.7905 43.0086 57.7632 42.7325 57.7087 42.5072C57.6579 42.2784 57.5834 42.0931 57.4853 41.9514C57.3872 41.8097 57.2674 41.7062 57.1257 41.6408C56.9876 41.5754 56.8296 41.5427 56.6516 41.5427Z" fill="#333"/><path d="M62.0377 47.7112C61.9977 47.8056 61.945 47.8765 61.8796 47.9237C61.8179 47.9746 61.7216 48 61.5908 48H60.5882L61.6344 45.7604L59.373 40.5837H60.5501C60.659 40.5837 60.7426 40.6091 60.8007 40.66C60.8588 40.7108 60.9024 40.7689 60.9315 40.8343L62.1249 43.7333C62.1648 43.8277 62.1993 43.9258 62.2284 44.0275C62.2575 44.1293 62.2829 44.231 62.3047 44.3327C62.3337 44.2274 62.3646 44.1256 62.3973 44.0275C62.4336 43.9295 62.4718 43.8296 62.5118 43.7278L63.6343 40.8343C63.6633 40.7617 63.7106 40.7017 63.776 40.6545C63.845 40.6073 63.9213 40.5837 64.0048 40.5837H65.0838L62.0377 47.7112Z" fill="#333"/><path d="M73.6015 38.295V39.4993H71.2311V46.1745H69.7653V39.4993H67.384V38.295H73.6015Z" fill="#333"/><path d="M73.0066 40.5837H74.0746C74.1763 40.5837 74.2617 40.6073 74.3307 40.6545C74.3998 40.7017 74.4434 40.7617 74.4615 40.8343L75.2625 43.8205C75.3061 43.984 75.3407 44.1438 75.3661 44.3C75.3951 44.4562 75.4224 44.6124 75.4478 44.7686C75.4878 44.6124 75.5296 44.4562 75.5732 44.3C75.6204 44.1438 75.6694 43.984 75.7203 43.8205L76.6466 40.8234C76.6684 40.7508 76.712 40.6908 76.7774 40.6436C76.8428 40.5964 76.9191 40.5728 77.0063 40.5728H77.6002C77.6983 40.5728 77.7801 40.5964 77.8455 40.6436C77.9108 40.6908 77.9544 40.7508 77.9762 40.8234L78.8917 43.875C78.9389 44.0312 78.9807 44.1838 79.017 44.3327C79.057 44.478 79.0951 44.6251 79.1315 44.7741C79.1569 44.6179 79.1841 44.4617 79.2132 44.3055C79.2459 44.1492 79.2859 43.9876 79.3331 43.8205L80.1614 40.8343C80.1795 40.7617 80.2231 40.7017 80.2921 40.6545C80.3612 40.6073 80.4411 40.5837 80.5319 40.5837H81.5509L79.7799 46.1745H78.6955C78.5793 46.1745 78.4957 46.0946 78.4449 45.9348L77.4368 42.7034C77.4041 42.5981 77.3732 42.4927 77.3441 42.3873C77.3187 42.2784 77.2969 42.1712 77.2787 42.0658C77.2569 42.1748 77.2333 42.2838 77.2079 42.3928C77.1825 42.4981 77.1534 42.6053 77.1207 42.7143L76.1017 45.9348C76.0509 46.0946 75.9528 46.1745 75.8075 46.1745H74.7776L73.0066 40.5837Z" fill="#333"/><path d="M83.7416 40.5837V46.1745H82.3957V40.5837H83.7416ZM83.9432 38.9544C83.9432 39.0706 83.9196 39.1796 83.8724 39.2813C83.8252 39.383 83.7616 39.472 83.6817 39.5483C83.6054 39.6246 83.5146 39.6864 83.4092 39.7336C83.3039 39.7772 83.1913 39.799 83.0714 39.799C82.9551 39.799 82.8443 39.7772 82.739 39.7336C82.6373 39.6864 82.5483 39.6246 82.472 39.5483C82.3957 39.472 82.3339 39.383 82.2867 39.2813C82.2431 39.1796 82.2213 39.0706 82.2213 38.9544C82.2213 38.8345 82.2431 38.7219 82.2867 38.6165C82.3339 38.5112 82.3957 38.4204 82.472 38.3441C82.5483 38.2678 82.6373 38.2078 82.739 38.1642C82.8443 38.117 82.9551 38.0934 83.0714 38.0934C83.1913 38.0934 83.3039 38.117 83.4092 38.1642C83.5146 38.2078 83.6054 38.2678 83.6817 38.3441C83.7616 38.4204 83.8252 38.5112 83.8724 38.6165C83.9196 38.7219 83.9432 38.8345 83.9432 38.9544Z" fill="#333"/><path d="M87.1036 46.2617C86.6204 46.2617 86.2481 46.1255 85.9865 45.853C85.725 45.5769 85.5942 45.1973 85.5942 44.7141V41.5918H85.0275C84.9548 41.5918 84.8912 41.5682 84.8367 41.5209C84.7859 41.4737 84.7604 41.4029 84.7604 41.3084V40.7744L85.6596 40.6273L85.9429 39.1015C85.9574 39.0288 85.9901 38.9725 86.041 38.9326C86.0955 38.8926 86.1627 38.8726 86.2426 38.8726H86.9401V40.6327H88.4114V41.5918H86.9401V44.6215C86.9401 44.7959 86.9837 44.9321 87.0709 45.0302C87.1581 45.1283 87.2743 45.1773 87.4196 45.1773C87.5032 45.1773 87.5722 45.1682 87.6267 45.1501C87.6848 45.1283 87.7339 45.1065 87.7738 45.0847C87.8174 45.0629 87.8556 45.0429 87.8883 45.0247C87.921 45.003 87.9537 44.9921 87.9864 44.9921C88.0263 44.9921 88.059 45.003 88.0844 45.0247C88.1099 45.0429 88.1371 45.072 88.1662 45.1119L88.5694 45.7658C88.3732 45.9293 88.148 46.0528 87.8937 46.1364C87.6394 46.2199 87.376 46.2617 87.1036 46.2617Z" fill="#333"/><path d="M91.3182 46.2617C90.835 46.2617 90.4627 46.1255 90.2011 45.853C89.9395 45.5769 89.8088 45.1973 89.8088 44.7141V41.5918H89.242C89.1694 41.5918 89.1058 41.5682 89.0513 41.5209C89.0005 41.4737 88.975 41.4029 88.975 41.3084V40.7744L89.8742 40.6273L90.1575 39.1015C90.172 39.0288 90.2047 38.9725 90.2556 38.9326C90.3101 38.8926 90.3773 38.8726 90.4572 38.8726H91.1547V40.6327H92.626V41.5918H91.1547V44.6215C91.1547 44.7959 91.1983 44.9321 91.2855 45.0302C91.3727 45.1283 91.4889 45.1773 91.6342 45.1773C91.7178 45.1773 91.7868 45.1682 91.8413 45.1501C91.8994 45.1283 91.9485 45.1065 91.9884 45.0847C92.032 45.0629 92.0702 45.0429 92.1029 45.0247C92.1356 45.003 92.1683 44.9921 92.2009 44.9921C92.2409 44.9921 92.2736 45.003 92.299 45.0247C92.3245 45.0429 92.3517 45.072 92.3808 45.1119L92.784 45.7658C92.5878 45.9293 92.3626 46.0528 92.1083 46.1364C91.854 46.2199 91.5906 46.2617 91.3182 46.2617Z" fill="#333"/><path d="M96.0069 40.4965C96.3592 40.4965 96.6825 40.5528 96.9768 40.6654C97.2747 40.778 97.5308 40.9433 97.7451 41.1613C97.9595 41.3756 98.1266 41.6408 98.2465 41.9569C98.3663 42.2693 98.4263 42.6271 98.4263 43.0304C98.4263 43.1321 98.4208 43.2174 98.4099 43.2865C98.4027 43.3519 98.3863 43.4045 98.3609 43.4445C98.3391 43.4808 98.3082 43.5081 98.2683 43.5262C98.2283 43.5408 98.1774 43.548 98.1157 43.548H94.6609C94.7009 44.122 94.8553 44.5434 95.1241 44.8122C95.3929 45.0811 95.7489 45.2155 96.1921 45.2155C96.4101 45.2155 96.5972 45.19 96.7534 45.1392C96.9132 45.0883 97.0513 45.032 97.1675 44.9703C97.2874 44.9085 97.3909 44.8522 97.4781 44.8013C97.5689 44.7505 97.6561 44.725 97.7397 44.725C97.7942 44.725 97.8414 44.7359 97.8814 44.7577C97.9213 44.7795 97.9558 44.8104 97.9849 44.8504L98.3772 45.3408C98.2283 45.5152 98.0612 45.6623 97.8759 45.7822C97.6906 45.8984 97.4963 45.9929 97.2929 46.0655C97.0931 46.1346 96.8878 46.1836 96.6771 46.2127C96.47 46.2417 96.2684 46.2563 96.0722 46.2563C95.6835 46.2563 95.3221 46.1927 94.9879 46.0655C94.6536 45.9348 94.363 45.744 94.116 45.4934C93.869 45.2391 93.6746 44.9267 93.5329 44.5561C93.3913 44.1819 93.3204 43.7496 93.3204 43.2592C93.3204 42.8778 93.3822 42.5199 93.5057 42.1857C93.6292 41.8479 93.8054 41.5554 94.0343 41.3084C94.2668 41.0578 94.5483 40.8598 94.8789 40.7145C95.2131 40.5691 95.5891 40.4965 96.0069 40.4965ZM96.0341 41.461C95.6418 41.461 95.3348 41.5718 95.1132 41.7934C94.8916 42.015 94.7499 42.3292 94.6882 42.7361H97.2166C97.2166 42.5617 97.193 42.3982 97.1457 42.2457C97.0985 42.0895 97.0258 41.9532 96.9278 41.837C96.8297 41.7207 96.7062 41.6299 96.5572 41.5645C96.4083 41.4955 96.2339 41.461 96.0341 41.461Z" fill="#333"/><path d="M99.5181 46.1745V40.5837H100.308C100.446 40.5837 100.543 40.6091 100.597 40.66C100.652 40.7108 100.688 40.798 100.706 40.9215L100.788 41.5972C100.988 41.2521 101.222 40.9796 101.491 40.7798C101.759 40.58 102.061 40.4801 102.395 40.4801C102.671 40.4801 102.9 40.5437 103.082 40.6709L102.907 41.679C102.897 41.7443 102.873 41.7916 102.837 41.8206C102.8 41.8461 102.751 41.8588 102.689 41.8588C102.635 41.8588 102.561 41.8461 102.466 41.8206C102.372 41.7952 102.246 41.7825 102.09 41.7825C101.81 41.7825 101.571 41.8606 101.371 42.0168C101.171 42.1694 101.002 42.3946 100.864 42.6925V46.1745H99.5181Z" fill="#333"/></svg>